<svg version="1.1" id="Layer_1" xmlns="http://www.w3.org/2000/svg" xmlns:xlink="http://www.w3.org/1999/xlink" x="0px" y="0px"
	 width="100%" viewBox="0 0 500 500" enable-background="new 0 0 500 500" xml:space="preserve">
<path fill="#000000" opacity="1.000000" stroke="none" 
	d="
M327.000000,501.000000 
	C218.000031,501.000000 109.500053,501.000000 1.000058,501.000000 
	C1.000039,334.333405 1.000039,167.666794 1.000019,1.000148 
	C167.666565,1.000098 334.333130,1.000098 500.999756,1.000049 
	C500.999847,167.666519 500.999847,334.333038 500.999939,500.999786 
	C443.166656,501.000000 385.333344,501.000000 327.000000,501.000000 
M243.005234,177.998779 
	C243.005234,177.998779 243.060318,177.976685 243.000427,177.254852 
	C240.872955,174.206314 239.036758,170.895050 236.566177,168.155991 
	C227.253235,157.831009 215.244812,151.647781 202.338852,147.257309 
	C195.964844,145.088928 189.209564,144.041336 182.375092,142.427170 
	C183.672012,148.390244 186.308670,152.046036 192.080597,152.621033 
	C193.034271,152.716034 193.917114,153.521881 193.994949,153.997803 
	C188.673035,153.303116 183.351120,152.608414 176.804367,151.753830 
	C182.365677,160.255493 182.085495,172.907272 196.473434,170.108414 
	C196.628510,170.078262 196.802734,170.139725 196.967056,170.164780 
	C213.791641,172.731705 229.224213,178.539429 242.379028,189.658234 
	C245.134964,191.987610 247.617203,192.590500 250.367798,189.311279 
	C251.911362,187.471085 254.216980,186.216141 256.303955,184.894424 
	C270.537018,175.880264 285.779633,170.015259 302.906769,169.926376 
	C304.347870,169.918900 306.513672,169.344711 307.098511,168.322159 
	C309.948883,163.338501 312.376068,158.112793 315.381287,152.118530 
	C308.606995,152.753738 302.803101,153.297943 297.398315,153.188858 
	C303.740234,152.805786 308.655212,150.587631 309.840149,143.324997 
	C309.235748,143.219131 308.589508,142.926224 308.016876,143.031937 
	C294.187103,145.585449 280.480225,149.069321 269.164215,157.646103 
	C261.450134,163.492874 255.109406,171.151672 248.082184,177.233292 
	C249.653030,169.278351 253.963867,163.001587 259.859924,157.615417 
	C260.724579,156.825546 261.644012,155.059937 261.327393,154.182800 
	C259.446686,148.972321 257.290131,143.854446 255.028671,138.793762 
	C254.536484,137.692337 253.279907,136.219101 252.307190,136.166031 
	C247.396225,135.897995 242.462738,136.042831 238.573425,136.042831 
	C235.927078,143.267410 233.633057,149.530167 231.097397,156.452545 
	C238.294754,161.534836 242.991379,169.403824 244.330322,178.833984 
	C243.898117,178.538223 243.465912,178.242462 243.005234,177.998779 
M323.526886,253.951126 
	C324.560333,250.192291 325.593781,246.433441 326.812714,242.000000 
	C322.259460,242.000000 318.575500,242.376297 315.001465,241.909882 
	C309.915710,241.246170 307.176727,243.079178 306.433929,248.119720 
	C305.882446,251.862137 303.791962,253.217102 299.892975,253.088120 
	C291.241119,252.801895 282.570221,252.863159 273.913513,253.063217 
	C270.352081,253.145538 268.863739,252.238098 268.924469,248.351181 
	C269.129974,235.195862 268.955200,222.035110 269.025055,208.876968 
	C269.056793,202.903595 271.931458,200.092178 277.938812,200.019958 
	C284.267303,199.943863 290.624786,200.365646 296.918854,199.893539 
	C302.765778,199.454987 306.416656,200.870087 307.340912,207.262161 
	C307.541565,208.649643 309.659454,210.689316 311.036255,210.810104 
	C315.964478,211.242447 320.953705,210.979446 326.224152,210.979446 
	C325.619232,201.267593 321.122131,193.500092 317.288727,185.465057 
	C316.025543,182.817307 314.408966,181.896027 311.545532,181.946671 
	C302.886932,182.099762 294.219788,182.167603 285.563751,181.953644 
	C276.698059,181.734528 268.190216,181.842377 260.574677,187.751709 
	C255.955078,191.336349 252.240067,195.415344 252.151764,201.045151 
	C251.806946,223.026138 252.048950,245.015854 251.961502,267.001892 
	C251.949356,270.058380 253.080505,271.050476 256.062531,271.036469 
	C274.550659,270.949615 293.040222,271.069916 311.526611,270.869751 
	C313.325531,270.850281 315.877747,269.573029 316.748688,268.094940 
	C319.261078,263.831207 321.092224,259.166016 323.526886,253.951126 
M198.477829,184.032135 
	C200.893784,181.815170 203.309738,179.598221 205.725708,177.381256 
	C205.492981,176.765625 205.260254,176.150009 205.027527,175.534393 
	C198.007690,175.375809 190.983673,175.041733 183.971542,175.208130 
	C182.584763,175.241043 180.874008,176.944305 179.937698,178.306778 
	C168.604630,194.798111 163.129929,212.810303 164.857773,233.056015 
	C165.895889,245.219788 169.321609,256.446533 175.165955,266.977875 
	C176.165298,268.778687 178.773865,270.791351 180.667526,270.819946 
	C199.487976,271.104156 218.314667,270.941376 237.138901,271.039886 
	C240.337769,271.056641 241.113007,269.635590 241.029617,266.798279 
	C240.897537,262.304260 240.999390,257.803406 240.999725,253.305466 
	C241.000565,241.925995 240.994949,242.148560 229.753357,241.893311 
	C225.111984,241.787918 223.292099,243.263870 223.998367,247.803024 
	C224.659576,252.052628 222.692017,253.201385 218.640121,253.078934 
	C209.985291,252.817368 201.310547,252.803574 192.657532,253.093216 
	C189.140152,253.210953 187.445969,251.726624 186.424500,248.778397 
	C182.627472,237.818970 181.104141,226.722061 183.369095,215.136932 
	C185.621384,203.616440 190.852661,193.664459 198.477829,184.032135 
M270.162994,304.943665 
	C283.864319,299.959015 296.458954,293.290863 307.100830,281.018860 
	C296.991821,281.018860 288.247406,281.004211 279.503357,281.052002 
	C278.924255,281.055176 278.325806,281.494141 277.773285,281.797577 
	C258.586548,292.334778 238.888687,293.435791 219.163742,283.897308 
	C208.311340,278.649353 197.371490,282.311737 185.738235,280.804901 
	C193.332336,290.048523 201.811951,296.298340 211.427719,300.643768 
	C230.103622,309.083466 249.512924,310.446411 270.162994,304.943665 
M243.000000,338.479553 
	C243.000000,342.246094 243.000000,346.012634 243.000000,349.644073 
	C246.024872,349.644073 248.416168,349.644073 251.209351,349.644073 
	C251.209351,343.459381 251.209351,337.621674 251.209351,330.705811 
	C254.287888,336.032166 256.849091,340.311096 259.257446,344.674408 
	C261.535492,348.801758 264.387421,351.517517 269.622864,349.549652 
	C269.622864,338.822754 269.622864,327.971008 269.622864,317.231506 
	C267.301575,317.231506 265.359802,317.231506 262.812622,317.231506 
	C262.812622,323.710327 262.812622,329.977570 262.812622,337.001251 
	C259.397522,331.471313 255.819092,327.060944 253.791809,322.026001 
	C251.517487,316.377472 247.879486,316.490479 243.000000,317.348480 
	C243.000000,324.222107 243.000000,330.854523 243.000000,338.479553 
M307.008362,348.982239 
	C309.545074,349.410706 312.081787,349.839203 314.672058,350.276733 
	C314.672058,338.637360 314.672058,327.906189 314.672058,317.185150 
	C312.392242,317.185150 310.445526,317.185150 307.905579,317.185150 
	C307.905579,323.647186 307.905579,329.952271 307.905579,337.457733 
	C303.289490,329.963654 299.390503,323.633820 295.475037,317.277161 
	C293.159637,317.277161 290.740875,317.277161 288.301208,317.277161 
	C288.301208,328.285767 288.301208,339.014771 288.301208,349.655792 
	C291.003235,349.655792 293.394775,349.655792 296.347961,349.655792 
	C296.347961,343.720978 296.347961,338.117767 296.347961,331.656403 
	C300.186707,337.791718 303.451233,343.009216 307.008362,348.982239 
M238.782867,331.687439 
	C239.370300,323.036926 238.264496,319.289459 233.590637,318.392029 
	C227.583298,317.238495 221.374863,317.132172 215.216858,316.571442 
	C215.216858,328.335846 215.216858,338.944305 215.216858,349.755005 
	C217.491684,349.755005 219.547531,349.755005 222.028870,349.755005 
	C222.028870,345.754364 222.028870,341.988525 222.028870,338.397949 
	C228.306305,336.384491 228.618484,341.790253 229.672455,344.638000 
	C231.675537,350.050201 234.966782,350.911133 240.476410,349.387848 
	C238.239807,345.124237 236.090546,341.027100 234.136673,337.302460 
	C235.642334,335.452728 236.932205,333.868134 238.782867,331.687439 
M339.515503,333.000000 
	C337.400970,333.000000 335.286438,333.000000 332.885498,333.000000 
	C333.067139,335.032013 333.193512,336.445618 333.341736,338.103668 
	C335.302643,338.103668 336.925812,338.103668 339.734802,338.103668 
	C338.705750,340.445099 338.409424,343.036530 337.098480,343.741730 
	C333.212921,345.831848 328.683899,343.598938 327.724487,339.126892 
	C327.010681,335.799469 326.622772,332.120300 327.331055,328.868103 
	C327.807587,326.680054 330.154999,324.448212 332.246490,323.251678 
	C333.307404,322.644745 336.421173,323.762878 337.272034,325.011078 
	C339.576599,328.391785 342.413177,328.381439 345.938354,327.626923 
	C346.229126,322.786133 343.556152,319.742004 339.623352,318.084869 
	C329.857056,313.969635 322.736420,318.612122 319.835327,330.397919 
	C318.220184,336.959656 319.283783,343.302277 324.267365,347.376617 
	C329.883911,351.968445 336.906494,351.973602 343.416840,348.159424 
	C344.503479,347.522827 345.791077,346.175232 345.875275,345.071442 
	C346.173981,341.156097 345.991760,337.204010 345.991760,333.000000 
	C343.747894,333.000000 342.105988,333.000000 339.515503,333.000000 
M202.430389,322.931519 
	C201.795456,320.974091 201.160522,319.016693 200.630707,317.383331 
	C195.500168,315.803802 192.985184,317.738068 191.810745,322.429749 
	C191.071991,325.380981 189.555664,328.130249 188.496490,331.010010 
	C186.236557,337.154297 184.047089,343.324524 181.715744,349.797943 
	C184.795151,349.797943 187.239365,349.797943 189.622620,349.797943 
	C190.262115,347.792542 190.840088,345.980103 191.470459,344.003326 
	C194.593460,344.003326 197.587082,343.842102 200.545868,344.092499 
	C201.554062,344.177826 202.860809,345.080353 203.370544,345.982635 
	C206.029297,350.688995 206.261780,350.846771 212.275238,349.035828 
	C209.154236,340.535950 206.040070,332.054688 202.430389,322.931519 
M169.717361,343.998016 
	C164.080246,342.816864 168.343826,338.867615 166.796143,335.856934 
	C171.311539,335.856934 175.059036,335.856934 179.046173,335.856934 
	C178.937469,333.638885 178.852783,331.910919 178.745956,329.731079 
	C174.567047,329.731079 170.835403,329.731079 167.231735,329.731079 
	C167.231735,327.296143 167.231735,325.354218 167.231735,322.951355 
	C171.860153,322.951355 176.279602,322.951355 180.702759,322.951355 
	C180.702759,320.752289 180.702759,319.028992 180.702759,317.331482 
	C173.347870,317.331482 166.292160,317.331482 159.357880,317.331482 
	C159.357880,328.383423 159.357880,339.100342 159.357880,349.621368 
	C166.775940,349.621368 173.831528,349.621368 180.770294,349.621368 
	C180.770294,347.626343 180.770294,346.015076 180.770294,343.999756 
	C177.261978,343.999756 173.966995,343.999756 169.717361,343.998016 
M135.000000,336.491272 
	C135.000000,340.914307 135.000000,345.337372 135.000000,349.663330 
	C142.396286,349.663330 149.133453,349.663330 155.803467,349.663330 
	C155.803467,347.705841 155.803467,346.086304 155.803467,343.991211 
	C151.221527,343.991211 146.810455,343.991211 141.945404,343.991211 
	C141.945404,334.789856 141.945404,326.055969 141.945404,317.300293 
	C139.404633,317.300293 137.350464,317.300293 135.000000,317.300293 
	C135.000000,323.561829 135.000000,329.528503 135.000000,336.491272 
M263.098419,126.929352 
	C250.834259,121.605148 238.788376,122.280815 226.691940,128.366974 
	C230.100800,129.773712 233.363281,131.071854 236.583221,132.468140 
	C238.329147,133.225220 239.919769,134.449524 241.722824,134.947235 
	C250.194168,137.285629 256.714966,131.513824 264.082855,129.257797 
	C264.200012,129.221909 263.901855,127.829552 263.098419,126.929352 
M276.689606,349.868195 
	C278.635437,349.868195 280.581299,349.868195 282.641663,349.868195 
	C282.641663,338.772858 282.641663,327.948853 282.641663,317.209930 
	C280.339447,317.209930 278.397461,317.209930 276.098236,317.209930 
	C276.098236,327.986389 276.098236,338.559174 276.689606,349.868195 
M223.053650,365.203613 
	C222.727814,365.894073 222.401978,366.584564 221.610901,368.260956 
	C220.460312,365.260895 220.006073,362.938049 218.738495,361.212708 
	C218.016830,360.230408 215.573471,359.455505 214.603134,359.951691 
	C212.992783,360.775116 214.148788,371.754761 216.339935,374.345062 
	C216.724289,371.654755 217.024872,369.550903 217.305573,367.586121 
	C218.694382,369.649963 220.093582,371.729248 221.492783,373.808533 
	C222.845718,372.350861 224.198654,370.893188 225.730637,369.242615 
	C225.834152,370.018555 225.838287,370.784851 226.055420,371.485107 
	C226.309311,372.303894 226.748917,373.065063 227.107956,373.851227 
	C227.593033,373.809113 228.078125,373.766998 228.563202,373.724854 
	C228.708786,371.141693 229.100845,368.541718 228.926361,365.980316 
	C228.771133,363.701599 227.988220,361.465576 227.482346,359.210724 
	C226.065948,360.977997 224.649551,362.745239 223.053650,365.203613 
M259.611847,359.044556 
	C256.261658,361.024048 255.750793,370.417175 259.095337,373.894623 
	C259.669098,372.281891 260.184601,370.832916 260.700104,369.383942 
	C260.983734,369.694397 261.267395,370.004852 261.551025,370.315277 
	C263.667206,368.685242 266.786865,367.475708 267.684052,365.334808 
	C269.386536,361.272278 266.800293,359.272308 259.611847,359.044556 
M178.851440,361.464935 
	C177.398636,365.425018 175.945816,369.385101 174.493011,373.345184 
	C174.696045,373.852112 174.899094,374.359039 175.102142,374.865936 
	C179.137268,369.897217 183.286133,371.209045 187.600266,373.963257 
	C186.387772,369.182953 185.086151,365.118286 183.497238,361.169220 
	C182.464157,358.601624 180.821411,358.399994 178.851440,361.464935 
M336.092438,370.186523 
	C335.397736,369.900391 334.703003,369.614258 334.008270,369.328125 
	C333.782013,370.031342 333.250305,371.285339 333.375488,371.354797 
	C335.128357,372.326843 337.005127,373.863342 338.781769,373.779480 
	C340.503754,373.698212 342.828918,372.248932 343.570160,370.748749 
	C344.027771,369.822540 342.298401,367.388916 341.035065,366.164032 
	C339.861786,365.026520 338.004028,364.594910 336.447662,363.852509 
	C336.575043,363.364410 336.702423,362.876282 336.829834,362.388153 
	C339.006927,362.822418 341.184021,363.256714 343.361084,363.690979 
	C343.651642,363.231781 343.942169,362.772614 344.232727,362.313446 
	C342.640778,361.237946 341.084442,359.365204 339.447754,359.292084 
	C337.475067,359.203979 334.140686,360.165527 333.645325,361.504761 
	C331.427643,367.500305 338.520050,367.034424 341.425385,371.090393 
	C339.132324,370.905121 337.839081,370.800598 336.092438,370.186523 
M299.255920,370.666473 
	C298.532288,366.846069 297.808655,363.025635 297.084991,359.205231 
	C296.409241,359.244537 295.733459,359.283875 295.057709,359.323181 
	C295.264404,363.535553 295.153809,367.806427 295.912201,371.916992 
	C296.090546,372.883575 299.209167,373.845428 300.962189,373.822510 
	C302.509674,373.802277 305.247375,372.554657 305.366150,371.591034 
	C305.864471,367.547028 305.576538,363.406158 305.576538,359.300751 
	C304.861115,359.298981 304.145660,359.297211 303.430237,359.295471 
	C303.285797,361.851440 303.149719,364.407959 302.994415,366.963287 
	C302.869019,369.026611 303.469604,371.650726 299.255920,370.666473 
M144.991837,359.154144 
	C139.477951,359.035400 137.355713,360.557312 137.014786,364.874664 
	C136.535324,370.946533 137.913651,373.516510 142.095490,373.925659 
	C145.332260,374.242310 148.480545,374.139832 148.421478,370.003662 
	C145.702362,369.953613 143.155090,369.906738 140.607819,369.859863 
	C140.666550,367.799286 140.054489,365.391418 140.908218,363.742432 
	C143.603867,358.535767 145.621216,366.554382 149.337555,363.699524 
	C148.123749,362.251740 146.930527,360.828491 144.991837,359.154144 
z"/>
<path fill="#0E3E67" opacity="1.000000" stroke="none" 
	d="
M323.358887,254.304810 
	C321.092224,259.166016 319.261078,263.831207 316.748688,268.094940 
	C315.877747,269.573029 313.325531,270.850281 311.526611,270.869751 
	C293.040222,271.069916 274.550659,270.949615 256.062531,271.036469 
	C253.080505,271.050476 251.949356,270.058380 251.961502,267.001892 
	C252.048950,245.015854 251.806946,223.026138 252.151764,201.045151 
	C252.240067,195.415344 255.955078,191.336349 260.574677,187.751709 
	C268.190216,181.842377 276.698059,181.734528 285.563751,181.953644 
	C294.219788,182.167603 302.886932,182.099762 311.545532,181.946671 
	C314.408966,181.896027 316.025543,182.817307 317.288727,185.465057 
	C321.122131,193.500092 325.619232,201.267593 326.224152,210.979446 
	C320.953705,210.979446 315.964478,211.242447 311.036255,210.810104 
	C309.659454,210.689316 307.541565,208.649643 307.340912,207.262161 
	C306.416656,200.870087 302.765778,199.454987 296.918854,199.893539 
	C290.624786,200.365646 284.267303,199.943863 277.938812,200.019958 
	C271.931458,200.092178 269.056793,202.903595 269.025055,208.876968 
	C268.955200,222.035110 269.129974,235.195862 268.924469,248.351181 
	C268.863739,252.238098 270.352081,253.145538 273.913513,253.063217 
	C282.570221,252.863159 291.241119,252.801895 299.892975,253.088120 
	C303.791962,253.217102 305.882446,251.862137 306.433929,248.119720 
	C307.176727,243.079178 309.915710,241.246170 315.001465,241.909882 
	C318.575500,242.376297 322.259460,242.000000 326.812714,242.000000 
	C325.593781,246.433441 324.560333,250.192291 323.358887,254.304810 
z"/>
<path fill="#0E3E67" opacity="1.000000" stroke="none" 
	d="
M198.234589,184.292862 
	C190.852661,193.664459 185.621384,203.616440 183.369095,215.136932 
	C181.104141,226.722061 182.627472,237.818970 186.424500,248.778397 
	C187.445969,251.726624 189.140152,253.210953 192.657532,253.093216 
	C201.310547,252.803574 209.985291,252.817368 218.640121,253.078934 
	C222.692017,253.201385 224.659576,252.052628 223.998367,247.803024 
	C223.292099,243.263870 225.111984,241.787918 229.753357,241.893311 
	C240.994949,242.148560 241.000565,241.925995 240.999725,253.305466 
	C240.999390,257.803406 240.897537,262.304260 241.029617,266.798279 
	C241.113007,269.635590 240.337769,271.056641 237.138901,271.039886 
	C218.314667,270.941376 199.487976,271.104156 180.667526,270.819946 
	C178.773865,270.791351 176.165298,268.778687 175.165955,266.977875 
	C169.321609,256.446533 165.895889,245.219788 164.857773,233.056015 
	C163.129929,212.810303 168.604630,194.798111 179.937698,178.306778 
	C180.874008,176.944305 182.584763,175.241043 183.971542,175.208130 
	C190.983673,175.041733 198.007690,175.375809 205.027527,175.534393 
	C205.260254,176.150009 205.492981,176.765625 205.725708,177.381256 
	C203.309738,179.598221 200.893784,181.815170 198.234589,184.292862 
z"/>
<path fill="#FF9324" opacity="1.000000" stroke="none" 
	d="
M269.748383,304.968750 
	C249.512924,310.446411 230.103622,309.083466 211.427719,300.643768 
	C201.811951,296.298340 193.332336,290.048523 185.738235,280.804901 
	C197.371490,282.311737 208.311340,278.649353 219.163742,283.897308 
	C238.888687,293.435791 258.586548,292.334778 277.773285,281.797577 
	C278.325806,281.494141 278.924255,281.055176 279.503357,281.052002 
	C288.247406,281.004211 296.991821,281.018860 307.100830,281.018860 
	C296.458954,293.290863 283.864319,299.959015 269.748383,304.968750 
z"/>
<path fill="#0F3E67" opacity="1.000000" stroke="none" 
	d="
M296.999237,153.842163 
	C302.803101,153.297943 308.606995,152.753738 315.381287,152.118530 
	C312.376068,158.112793 309.948883,163.338501 307.098511,168.322159 
	C306.513672,169.344711 304.347870,169.918900 302.906769,169.926376 
	C285.779633,170.015259 270.537018,175.880264 256.303955,184.894424 
	C254.216980,186.216141 251.911362,187.471085 250.367798,189.311279 
	C247.617203,192.590500 245.134964,191.987610 242.379028,189.658234 
	C229.224213,178.539429 213.791641,172.731705 196.967056,170.164780 
	C196.802734,170.139725 196.628510,170.078262 196.473434,170.108414 
	C182.085495,172.907272 182.365677,160.255493 176.804367,151.753830 
	C183.351120,152.608414 188.673035,153.303116 194.631775,154.341766 
	C212.311234,157.951782 227.888565,164.188583 240.370255,176.788437 
	C241.012405,177.436661 242.152222,177.591904 243.060318,177.976685 
	C243.060318,177.976685 243.005234,177.998779 242.588013,178.081085 
	C242.759857,179.115250 243.348892,180.067123 243.966263,181.351044 
	C245.471359,181.666641 247.799316,182.249725 248.296814,181.543457 
	C255.366409,171.506958 265.260742,165.353577 276.353241,160.955048 
	C283.112579,158.274734 290.109192,156.192856 296.999237,153.842163 
z"/>
<path fill="#0E3E67" opacity="1.000000" stroke="none" 
	d="
M244.843506,179.001938 
	C242.991379,169.403824 238.294754,161.534836 231.097397,156.452545 
	C233.633057,149.530167 235.927078,143.267410 238.573425,136.042831 
	C242.462738,136.042831 247.396225,135.897995 252.307190,136.166031 
	C253.279907,136.219101 254.536484,137.692337 255.028671,138.793762 
	C257.290131,143.854446 259.446686,148.972321 261.327393,154.182800 
	C261.644012,155.059937 260.724579,156.825546 259.859924,157.615417 
	C253.963867,163.001587 249.653030,169.278351 248.043732,177.973267 
	C246.929825,179.457932 248.077957,183.304276 244.892639,180.670349 
	C244.927139,179.894852 244.885315,179.448395 244.843506,179.001938 
z"/>
<path fill="#FF9324" opacity="1.000000" stroke="none" 
	d="
M243.000000,337.983246 
	C243.000000,330.854523 243.000000,324.222107 243.000000,317.348480 
	C247.879486,316.490479 251.517487,316.377472 253.791809,322.026001 
	C255.819092,327.060944 259.397522,331.471313 262.812622,337.001251 
	C262.812622,329.977570 262.812622,323.710327 262.812622,317.231506 
	C265.359802,317.231506 267.301575,317.231506 269.622864,317.231506 
	C269.622864,327.971008 269.622864,338.822754 269.622864,349.549652 
	C264.387421,351.517517 261.535492,348.801758 259.257446,344.674408 
	C256.849091,340.311096 254.287888,336.032166 251.209351,330.705811 
	C251.209351,337.621674 251.209351,343.459381 251.209351,349.644073 
	C248.416168,349.644073 246.024872,349.644073 243.000000,349.644073 
	C243.000000,346.012634 243.000000,342.246094 243.000000,337.983246 
z"/>
<path fill="#FF9324" opacity="1.000000" stroke="none" 
	d="
M306.862061,348.604492 
	C303.451233,343.009216 300.186707,337.791718 296.347961,331.656403 
	C296.347961,338.117767 296.347961,343.720978 296.347961,349.655792 
	C293.394775,349.655792 291.003235,349.655792 288.301208,349.655792 
	C288.301208,339.014771 288.301208,328.285767 288.301208,317.277161 
	C290.740875,317.277161 293.159637,317.277161 295.475037,317.277161 
	C299.390503,323.633820 303.289490,329.963654 307.905579,337.457733 
	C307.905579,329.952271 307.905579,323.647186 307.905579,317.185150 
	C310.445526,317.185150 312.392242,317.185150 314.672058,317.185150 
	C314.672058,327.906189 314.672058,338.637360 314.672058,350.276733 
	C312.081787,349.839203 309.545074,349.410706 306.862061,348.604492 
z"/>
<path fill="#FF9324" opacity="1.000000" stroke="none" 
	d="
M238.502472,331.985474 
	C236.932205,333.868134 235.642334,335.452728 234.136673,337.302460 
	C236.090546,341.027100 238.239807,345.124237 240.476410,349.387848 
	C234.966782,350.911133 231.675537,350.050201 229.672455,344.638000 
	C228.618484,341.790253 228.306305,336.384491 222.028870,338.397949 
	C222.028870,341.988525 222.028870,345.754364 222.028870,349.755005 
	C219.547531,349.755005 217.491684,349.755005 215.216858,349.755005 
	C215.216858,338.944305 215.216858,328.335846 215.216858,316.571442 
	C221.374863,317.132172 227.583298,317.238495 233.590637,318.392029 
	C238.264496,319.289459 239.370300,323.036926 238.502472,331.985474 
M222.102356,331.182220 
	C225.118240,330.903961 228.168915,330.790161 231.112000,330.167664 
	C231.546509,330.075775 231.992859,326.588654 231.546967,326.353424 
	C228.932022,324.974030 226.058228,324.081268 223.255142,323.070435 
	C223.033997,322.990692 222.686615,323.261017 222.013947,323.511780 
	C222.013947,325.675507 222.013947,327.972290 222.102356,331.182220 
z"/>
<path fill="#FF9324" opacity="1.000000" stroke="none" 
	d="
M339.989807,333.000000 
	C342.105988,333.000000 343.747894,333.000000 345.991760,333.000000 
	C345.991760,337.204010 346.173981,341.156097 345.875275,345.071442 
	C345.791077,346.175232 344.503479,347.522827 343.416840,348.159424 
	C336.906494,351.973602 329.883911,351.968445 324.267365,347.376617 
	C319.283783,343.302277 318.220184,336.959656 319.835327,330.397919 
	C322.736420,318.612122 329.857056,313.969635 339.623352,318.084869 
	C343.556152,319.742004 346.229126,322.786133 345.938354,327.626923 
	C342.413177,328.381439 339.576599,328.391785 337.272034,325.011078 
	C336.421173,323.762878 333.307404,322.644745 332.246490,323.251678 
	C330.154999,324.448212 327.807587,326.680054 327.331055,328.868103 
	C326.622772,332.120300 327.010681,335.799469 327.724487,339.126892 
	C328.683899,343.598938 333.212921,345.831848 337.098480,343.741730 
	C338.409424,343.036530 338.705750,340.445099 339.734802,338.103668 
	C336.925812,338.103668 335.302643,338.103668 333.341736,338.103668 
	C333.193512,336.445618 333.067139,335.032013 332.885498,333.000000 
	C335.286438,333.000000 337.400970,333.000000 339.989807,333.000000 
z"/>
<path fill="#FF9324" opacity="1.000000" stroke="none" 
	d="
M202.678131,323.252472 
	C206.040070,332.054688 209.154236,340.535950 212.275238,349.035828 
	C206.261780,350.846771 206.029297,350.688995 203.370544,345.982635 
	C202.860809,345.080353 201.554062,344.177826 200.545868,344.092499 
	C197.587082,343.842102 194.593460,344.003326 191.470459,344.003326 
	C190.840088,345.980103 190.262115,347.792542 189.622620,349.797943 
	C187.239365,349.797943 184.795151,349.797943 181.715744,349.797943 
	C184.047089,343.324524 186.236557,337.154297 188.496490,331.010010 
	C189.555664,328.130249 191.071991,325.380981 191.810745,322.429749 
	C192.985184,317.738068 195.500168,315.803802 200.630707,317.383331 
	C201.160522,319.016693 201.795456,320.974091 202.678131,323.252472 
M199.601791,334.101196 
	C198.915970,332.179962 198.230148,330.258698 197.202515,327.379913 
	C195.952377,330.936249 194.970978,333.728119 193.989578,336.519989 
	C194.260086,336.935669 194.530609,337.351379 194.801132,337.767059 
	C196.515030,336.796814 198.228928,335.826569 199.601791,334.101196 
z"/>
<path fill="#FF9324" opacity="1.000000" stroke="none" 
	d="
M170.194687,343.998901 
	C173.966995,343.999756 177.261978,343.999756 180.770294,343.999756 
	C180.770294,346.015076 180.770294,347.626343 180.770294,349.621368 
	C173.831528,349.621368 166.775940,349.621368 159.357880,349.621368 
	C159.357880,339.100342 159.357880,328.383423 159.357880,317.331482 
	C166.292160,317.331482 173.347870,317.331482 180.702759,317.331482 
	C180.702759,319.028992 180.702759,320.752289 180.702759,322.951355 
	C176.279602,322.951355 171.860153,322.951355 167.231735,322.951355 
	C167.231735,325.354218 167.231735,327.296143 167.231735,329.731079 
	C170.835403,329.731079 174.567047,329.731079 178.745956,329.731079 
	C178.852783,331.910919 178.937469,333.638885 179.046173,335.856934 
	C175.059036,335.856934 171.311539,335.856934 166.796143,335.856934 
	C168.343826,338.867615 164.080246,342.816864 170.194687,343.998901 
z"/>
<path fill="#FC9225" opacity="1.000000" stroke="none" 
	d="
M244.816315,180.999405 
	C248.077957,183.304276 246.929825,179.457932 248.079941,178.356766 
	C255.109406,171.151672 261.450134,163.492874 269.164215,157.646103 
	C280.480225,149.069321 294.187103,145.585449 308.016876,143.031937 
	C308.589508,142.926224 309.235748,143.219131 309.840149,143.324997 
	C308.655212,150.587631 303.740234,152.805786 297.198792,153.515503 
	C290.109192,156.192856 283.112579,158.274734 276.353241,160.955048 
	C265.260742,165.353577 255.366409,171.506958 248.296814,181.543457 
	C247.799316,182.249725 245.471359,181.666641 244.185852,181.345490 
	C244.377106,181.007843 244.816315,180.999405 244.816315,180.999405 
z"/>
<path fill="#FD9225" opacity="1.000000" stroke="none" 
	d="
M243.030365,177.615768 
	C242.152222,177.591904 241.012405,177.436661 240.370255,176.788437 
	C227.888565,164.188583 212.311234,157.951782 195.050644,154.342468 
	C193.917114,153.521881 193.034271,152.716034 192.080597,152.621033 
	C186.308670,152.046036 183.672012,148.390244 182.375092,142.427170 
	C189.209564,144.041336 195.964844,145.088928 202.338852,147.257309 
	C215.244812,151.647781 227.253235,157.831009 236.566177,168.155991 
	C239.036758,170.895050 240.872955,174.206314 243.030365,177.615768 
z"/>
<path fill="#FF9324" opacity="1.000000" stroke="none" 
	d="
M135.000000,335.993225 
	C135.000000,329.528503 135.000000,323.561829 135.000000,317.300293 
	C137.350464,317.300293 139.404633,317.300293 141.945404,317.300293 
	C141.945404,326.055969 141.945404,334.789856 141.945404,343.991211 
	C146.810455,343.991211 151.221527,343.991211 155.803467,343.991211 
	C155.803467,346.086304 155.803467,347.705841 155.803467,349.663330 
	C149.133453,349.663330 142.396286,349.663330 135.000000,349.663330 
	C135.000000,345.337372 135.000000,340.914307 135.000000,335.993225 
z"/>
<path fill="#0E3E67" opacity="1.000000" stroke="none" 
	d="
M263.447998,126.999779 
	C263.901855,127.829552 264.200012,129.221909 264.082855,129.257797 
	C256.714966,131.513824 250.194168,137.285629 241.722824,134.947235 
	C239.919769,134.449524 238.329147,133.225220 236.583221,132.468140 
	C233.363281,131.071854 230.100800,129.773712 226.691940,128.366974 
	C238.788376,122.280815 250.834259,121.605148 263.447998,126.999779 
z"/>
<path fill="#FF9324" opacity="1.000000" stroke="none" 
	d="
M276.393921,349.500061 
	C276.098236,338.559174 276.098236,327.986389 276.098236,317.209930 
	C278.397461,317.209930 280.339447,317.209930 282.641663,317.209930 
	C282.641663,327.948853 282.641663,338.772858 282.641663,349.868195 
	C280.581299,349.868195 278.635437,349.868195 276.393921,349.500061 
z"/>
<path fill="#0E3E67" opacity="1.000000" stroke="none" 
	d="
M223.143402,364.858032 
	C224.649551,362.745239 226.065948,360.977997 227.482346,359.210724 
	C227.988220,361.465576 228.771133,363.701599 228.926361,365.980316 
	C229.100845,368.541718 228.708786,371.141693 228.563202,373.724854 
	C228.078125,373.766998 227.593033,373.809113 227.107956,373.851227 
	C226.748917,373.065063 226.309311,372.303894 226.055420,371.485107 
	C225.838287,370.784851 225.834152,370.018555 225.730637,369.242615 
	C224.198654,370.893188 222.845718,372.350861 221.492767,373.808533 
	C220.093582,371.729248 218.694382,369.649963 217.305573,367.586121 
	C217.024872,369.550903 216.724289,371.654755 216.339935,374.345062 
	C214.148788,371.754761 212.992783,360.775116 214.603134,359.951691 
	C215.573471,359.455505 218.016830,360.230408 218.738495,361.212708 
	C220.006073,362.938049 220.460312,365.260895 221.610901,368.260956 
	C222.401978,366.584564 222.727814,365.894073 223.143402,364.858032 
z"/>
<path fill="#0E3E67" opacity="1.000000" stroke="none" 
	d="
M260.046753,359.028992 
	C266.800293,359.272308 269.386536,361.272278 267.684052,365.334808 
	C266.786865,367.475708 263.667206,368.685242 261.551025,370.315277 
	C261.267395,370.004852 260.983734,369.694397 260.700104,369.383942 
	C260.184601,370.832916 259.669098,372.281891 259.095337,373.894623 
	C255.750793,370.417175 256.261658,361.024048 260.046753,359.028992 
z"/>
<path fill="#0E3E67" opacity="1.000000" stroke="none" 
	d="
M178.993698,361.116699 
	C180.821411,358.399994 182.464157,358.601624 183.497238,361.169220 
	C185.086151,365.118286 186.387772,369.182953 187.600266,373.963257 
	C183.286133,371.209045 179.137268,369.897217 175.102142,374.865936 
	C174.899094,374.359039 174.696045,373.852112 174.493011,373.345184 
	C175.945816,369.385101 177.398636,365.425018 178.993698,361.116699 
z"/>
<path fill="#0E3E67" opacity="1.000000" stroke="none" 
	d="
M336.319153,370.441315 
	C337.839081,370.800598 339.132324,370.905121 341.425385,371.090393 
	C338.520050,367.034424 331.427643,367.500305 333.645325,361.504761 
	C334.140686,360.165527 337.475067,359.203979 339.447754,359.292084 
	C341.084442,359.365204 342.640778,361.237946 344.232727,362.313446 
	C343.942169,362.772614 343.651642,363.231781 343.361084,363.690979 
	C341.184021,363.256714 339.006927,362.822418 336.829834,362.388153 
	C336.702423,362.876282 336.575043,363.364410 336.447662,363.852509 
	C338.004028,364.594910 339.861786,365.026520 341.035065,366.164032 
	C342.298401,367.388916 344.027771,369.822540 343.570160,370.748749 
	C342.828918,372.248932 340.503754,373.698212 338.781769,373.779480 
	C337.005127,373.863342 335.128357,372.326843 333.375488,371.354797 
	C333.250305,371.285339 333.782013,370.031342 334.008301,369.328125 
	C334.703003,369.614258 335.397736,369.900391 336.319153,370.441315 
z"/>
<path fill="#0E3E67" opacity="1.000000" stroke="none" 
	d="
M299.566467,370.893738 
	C303.469604,371.650726 302.869019,369.026611 302.994415,366.963287 
	C303.149719,364.407959 303.285797,361.851440 303.430237,359.295471 
	C304.145660,359.297211 304.861115,359.298981 305.576538,359.300751 
	C305.576538,363.406158 305.864471,367.547028 305.366150,371.591034 
	C305.247375,372.554657 302.509674,373.802277 300.962189,373.822510 
	C299.209167,373.845428 296.090546,372.883575 295.912201,371.916992 
	C295.153809,367.806427 295.264404,363.535553 295.057709,359.323181 
	C295.733459,359.283875 296.409241,359.244537 297.084991,359.205231 
	C297.808655,363.025635 298.532288,366.846069 299.566467,370.893738 
z"/>
<path fill="#0E3E67" opacity="1.000000" stroke="none" 
	d="
M145.364563,359.279724 
	C146.930527,360.828491 148.123749,362.251740 149.337555,363.699524 
	C145.621216,366.554382 143.603867,358.535767 140.908218,363.742432 
	C140.054489,365.391418 140.666550,367.799286 140.607819,369.859863 
	C143.155090,369.906738 145.702362,369.953613 148.421478,370.003662 
	C148.480545,374.139832 145.332260,374.242310 142.095490,373.925659 
	C137.913651,373.516510 136.535324,370.946533 137.014786,364.874664 
	C137.355713,360.557312 139.477951,359.035400 145.364563,359.279724 
z"/>
<path fill="#FD9225" opacity="1.000000" stroke="none" 
	d="
M244.892639,180.670349 
	C244.816315,180.999405 244.377106,181.007843 244.157532,181.013412 
	C243.348892,180.067123 242.759857,179.115250 242.602249,178.055054 
	C243.465912,178.242462 243.898117,178.538223 244.586914,178.917969 
	C244.885315,179.448395 244.927139,179.894852 244.892639,180.670349 
z"/>
<path fill="#000000" opacity="1.000000" stroke="none" 
	d="
M222.058151,330.725647 
	C222.013947,327.972290 222.013947,325.675507 222.013947,323.511780 
	C222.686615,323.261017 223.033997,322.990692 223.255142,323.070435 
	C226.058228,324.081268 228.932022,324.974030 231.546967,326.353424 
	C231.992859,326.588654 231.546509,330.075775 231.112000,330.167664 
	C228.168915,330.790161 225.118240,330.903961 222.058151,330.725647 
z"/>
<path fill="#000000" opacity="1.000000" stroke="none" 
	d="
M199.772308,334.478760 
	C198.228928,335.826569 196.515030,336.796814 194.801132,337.767059 
	C194.530609,337.351379 194.260086,336.935669 193.989578,336.519989 
	C194.970978,333.728119 195.952377,330.936249 197.202515,327.379913 
	C198.230148,330.258698 198.915970,332.179962 199.772308,334.478760 
z"/>
</svg>